<?xml version="1.0" standalone="no"?>
<svg viewBox="0 0 200 200" xmlns="http://www.w3.org/2000/svg">
  <path fill="#F1C21B" d="M38.7,-50.4C53.4,-50.7,70.9,-45.6,71.6,-35.3C72.3,-25,56.2,-9.6,51.6,5.9C47,21.5,54.1,37.2,50.2,45.8C46.3,54.4,31.6,55.8,17.6,59.9C3.6,64,-9.6,70.7,-22.6,70C-35.5,69.3,-48.3,61.1,-47.6,48.7C-46.8,36.2,-32.5,19.4,-30.3,6.9C-28.1,-5.5,-37.9,-13.7,-40.8,-23.3C-43.6,-32.8,-39.4,-43.8,-31.5,-46.6C-23.5,-49.5,-11.7,-44.1,0.1,-44.3C12,-44.4,23.9,-50.2,38.7,-50.4Z" transform="translate(100 100)" />
</svg>
